Coordinates
version=1
nRows=17
nColumns=40
inDegrees=yes

Units are S.I. units (second, meters, Newtons, ...)
Angles are in degrees.

endheader
time	pelvis_tilt	pelvis_list	pelvis_rotation	pelvis_tx	pelvis_ty	pelvis_tz	hip_flexion_r	hip_adduction_r	hip_rotation_r	knee_angle_r	knee_angle_r_beta	ankle_angle_r	subtalar_angle_r	mtp_angle_r	hip_flexion_l	hip_adduction_l	hip_rotation_l	knee_angle_l	knee_angle_l_beta	ankle_angle_l	subtalar_angle_l	mtp_angle_l	lumbar_extension	lumbar_bending	lumbar_rotation	arm_flex_r	arm_add_r	arm_rot_r	elbow_flex_r	pro_sup_r	wrist_flex_r	wrist_dev_r	arm_flex_l	arm_add_l	arm_rot_l	elbow_flex_l	pro_sup_l	wrist_flex_l	wrist_dev_l
     47.95000000	     -3.57818864	     -4.66891010	      7.29992094	      1.07326611	      0.92407933	      0.47105289	      1.81386282	      3.27848397	    -15.38319045	     12.49184589	     12.49184589	     16.71121494	      3.11669442	     -4.03983697	     29.22996490	     -7.59856871	     -2.97475583	     20.52961449	     20.52961449	      2.61137340	     -7.19320486	      2.57995766	     -9.42743230	      6.00106708	      3.05824793	     26.90977381	    -18.71706079	      5.89929480	     76.53968184	     44.57865409	      0.00000000	      0.00000000	     -4.41650957	     -8.21407663	    -16.16117607	     26.39256888	     46.75229861	      0.00000000	      0.00000000
     47.96371429	     -3.39961168	     -4.59432146	      7.39340330	      1.07485243	      0.92312959	      0.46918482	      1.19537024	      3.15649536	    -15.28468988	     12.69533840	     12.69533840	     17.21915953	      2.93132415	     -4.16356596	     28.62070439	     -7.30497874	     -2.70590280	     21.44697238	     21.44697238	      2.84931168	     -7.72622198	      2.34197810	     -9.26143828	      5.72163273	      2.98145624	     26.17405644	    -18.32535502	      6.15515542	     76.40646504	     44.57350246	      0.00000000	      0.00000000	     -4.22556954	     -8.31433404	    -16.17601624	     26.47148215	     46.75749393	      0.00000000	      0.00000000
     47.97742857	     -3.30677484	     -4.61902898	      7.49831241	      1.07628270	      0.92191819	      0.46721001	      0.84520471	      3.11492933	    -14.98018509	     13.18485815	     13.18485815	     17.78059085	      2.27669541	     -4.00782216	     28.31489586	     -6.95558716	     -1.68398929	     22.57444159	     22.57444159	      2.92551663	     -9.55876140	      2.24450622	     -9.03108751	      5.56437811	      2.99918950	     25.42140108	    -18.29239407	      6.60321224	     76.50893719	     44.56499424	      0.00000000	      0.00000000	     -3.98995510	     -8.43388527	    -16.28824912	     26.72523261	     46.77415822	      0.00000000	      0.00000000
     47.99114286	     -3.08080912	     -4.50092876	      7.60734023	      1.07800796	      0.92117841	      0.46517087	      0.18980345	      2.94032554	    -14.87073391	     13.44210236	     13.44210236	     18.20738838	      2.02343924	     -4.02951503	     27.74953117	     -6.65232769	     -1.29142523	     23.47255798	     23.47255798	      3.32192577	    -10.20251430	      2.00581127	     -8.95370880	      5.22745437	      2.89984208	     24.52224316	    -18.01371660	      6.94218850	     76.35733139	     44.55800241	      0.00000000	      0.00000000	     -3.70713107	     -8.60905047	    -16.32676666	     26.89137774	     46.78420375	      0.00000000	      0.00000000
     48.00485714	     -2.88941576	     -4.40166153	      7.74134664	      1.07962746	      0.92052780	      0.46296930	     -0.38945818	      2.76446234	    -14.77952178	     13.74575459	     13.74575459	     18.56214659	      1.72096002	     -4.01395962	     27.31639431	     -6.35130952	     -0.78123133	     24.36542181	     24.36542181	      3.78761821	    -10.91094524	      1.78869998	     -8.85538130	      4.93127594	      2.80425119	     23.53707481	    -17.80262852	      7.30858426	     76.15930481	     44.55081516	      0.00000000	      0.00000000	     -3.35543970	     -8.76962794	    -16.36559590	     27.11616622	     46.79528939	      0.00000000	      0.00000000
     48.01857143	     -2.85592074	     -4.34451989	      7.84270710	      1.08095859	      0.91988901	      0.46065622	     -0.59512246	      2.58995375	    -14.42417348	     14.40987512	     14.40987512	     19.19972589	      1.00211793	     -2.95451896	     27.09360574	     -5.93059165	      0.25088244	     25.15027441	     25.15027441	      4.30515072	    -12.49024260	      2.48749344	     -8.66650109	      4.66997885	      2.98851849	     22.38305070	    -18.32025485	      8.25727096	     76.59423844	     44.53178088	      0.00000000	      0.00000000	     -2.93824130	     -8.80236910	    -16.66133735	     27.90001532	     46.82765786	      0.00000000	      0.00000000
     48.03228571	     -2.71316455	     -4.23498376	      7.97756955	      1.08247060	      0.91968873	      0.45825115	     -1.11359393	      2.36305527	    -14.42616471	     14.71813519	     14.71813519	     19.37220201	      0.84397542	     -2.93846036	     26.76125829	     -5.67499910	      0.57424215	     25.86786586	     25.86786586	      4.90427659	    -12.80196275	      2.20432690	     -8.58368280	      4.34479864	      2.82157557	     21.26134277	    -18.06582549	      8.59123078	     76.21121764	     44.53143097	      0.00000000	      0.00000000	     -2.50971509	     -8.97649950	    -16.68850894	     28.13480743	     46.83749777	      0.00000000	      0.00000000
     48.04600000	     -2.59673278	     -4.15704717	      8.10147459	      1.08383610	      0.91969468	      0.45571269	     -1.51667552	      2.13392203	    -14.43214594	     15.15424390	     15.15424390	     19.46551020	      0.66329881	     -2.91319495	     26.46177269	     -5.44629556	      0.87868410	     26.48317913	     26.48317913	      5.50966521	    -13.12480458	      1.99144158	     -8.49654083	      4.10005901	      2.73669502	     20.12918765	    -17.93124219	      8.93269150	     75.74494265	     44.53340881	      0.00000000	      0.00000000	     -1.99962755	     -9.09069443	    -16.71266752	     28.45885160	     46.84761610	      0.00000000	      0.00000000
     48.05971429	     -2.60547996	     -4.06755729	      8.12628089	      1.08492489	      0.91973802	      0.45308944	     -1.53944037	      1.77721043	    -14.37905906	     16.03857235	     16.03857235	     19.63372626	      0.43834159	     -2.85943153	     26.29085371	     -5.20141146	      1.10124498	     27.03977333	     27.03977333	      6.14274492	    -13.49339096	      2.07707294	     -8.30833209	      3.83423845	      3.13452054	     18.86202808	    -18.25903162	      9.34006956	     74.86423806	     44.55083513	      0.00000000	      0.00000000	     -1.29936218	     -9.12079186	    -16.77499476	     29.14544220	     46.86159236	      0.00000000	      0.00000000
     48.07342857	     -2.61551056	     -3.98812206	      8.16931157	      1.08595071	      0.92015275	      0.45030893	     -1.52078973	      1.39519441	    -14.45839144	     16.98426970	     16.98426970	     19.68047207	      0.32716715	     -2.73256229	     26.00183565	     -4.96924590	      1.23569019	     27.34794575	     27.34794575	      6.83817143	    -13.58915824	      2.43018955	     -8.14450854	      3.61087283	      3.24596243	     17.61866516	    -18.30051761	      9.76284903	     73.97134501	     44.57294734	      0.00000000	      0.00000000	     -0.76397187	     -9.08766230	    -16.81446395	     29.91174211	     46.86374652	      0.00000000	      0.00000000
     48.08714286	     -2.58408478	     -3.90650333	      8.14964849	      1.08692625	      0.92078876	      0.44747154	     -1.47045692	      0.96976482	    -14.50828168	     18.05064915	     18.05064915	     19.63589026	      0.27879245	     -2.80682666	     25.61997039	     -4.77759616	      1.21604841	     27.57733205	     27.57733205	      7.48754996	    -13.60291515	      2.68865902	     -8.05577398	      3.41861070	      3.31792266	     16.45327906	    -18.25205371	     10.14326260	     72.89960016	     44.60206116	      0.00000000	      0.00000000	     -0.25744902	     -9.12890830	    -16.82032568	     30.68845400	     46.86065476	      0.00000000	      0.00000000
     48.10085714	     -2.54920826	     -3.82942804	      8.06846076	      1.08776234	      0.92163024	      0.44461991	     -1.25315431	      0.48626595	    -14.51355148	     19.39909624	     19.39909624	     19.46513004	      0.17108659	     -3.09832005	     25.12370443	     -4.60881978	      1.10817913	     27.61474098	     27.61474098	      8.00887329	    -13.56568104	      2.79027815	     -8.02046140	      3.23826286	      3.46035243	     15.29583050	    -18.23309816	     10.48971758	     71.72947965	     44.63143554	      0.00000000	      0.00000000	      0.30251147	     -9.11429592	    -16.79751692	     31.43256558	     46.85809993	      0.00000000	      0.00000000
     48.11457143	     -2.58335397	     -3.79368140	      7.96871281	      1.08841598	      0.92248263	      0.44170608	     -0.80083325	     -0.05030429	    -14.63488683	     20.98644462	     20.98644462	     18.96821967	      0.15130699	     -4.29672322	     24.68478898	     -4.44250683	      1.05290495	     27.62475954	     27.62475954	      8.73449782	    -13.51387337	      3.65844784	     -7.88558923	      3.12129891	      3.11408419	     14.82567047	    -17.66088529	     10.85860835	     68.94956661	     44.74308101	      0.00000000	      0.00000000	      0.08486918	     -9.19151224	    -16.48855749	     33.38210193	     46.77423321	      0.00000000	      0.00000000
     48.12828571	     -2.55362140	     -3.73987728	      7.77848654	      1.08896659	      0.92347602	      0.43889779	     -0.16698185	     -0.63472755	    -14.48927520	     23.01131446	     23.01131446	     18.58266501	     -0.18681286	     -4.92616003	     24.04441814	     -4.33125751	      0.78415619	     27.40727707	     27.40727707	      9.10023483	    -13.39814691	      3.60419386	     -7.90863641	      3.01381930	      3.34323353	     13.64084652	    -17.73990928	     11.24420777	     67.77858503	     44.76916298	      0.00000000	      0.00000000	      0.70088530	     -9.16189282	    -16.42472775	     34.09806043	     46.76921466	      0.00000000	      0.00000000
     48.14200000	     -2.57780350	     -3.69100311	      7.55003677	      1.08931246	      0.92435221	      0.43610708	      0.77454587	     -1.30421065	    -14.30810068	     25.44575192	     25.44575192	     18.00732944	     -0.53649907	     -5.90106982	     23.45056484	     -4.20647564	      0.52776887	     27.16278913	     27.16278913	      9.39458131	    -13.35624999	      3.57085229	     -7.87046443	      2.92775029	      3.56366266	     12.57765480	    -17.75351466	     11.50568078	     66.18473969	     44.81474281	      0.00000000	      0.00000000	      1.23142086	     -9.13089746	    -16.31180267	     35.02559142	     46.75718976	      0.00000000	      0.00000000
     48.15571429	     -2.64148575	     -3.64382763	      7.25888455	      1.08945167	      0.92512779	      0.43339492	      1.97464939	     -2.03096766	    -14.04040785	     28.19821984	     28.19821984	     17.15462266	     -1.00949779	     -7.25145016	     22.87390466	     -4.07690236	      0.29192404	     26.87763712	     26.87763712	      9.66750712	    -13.35154706	      3.52503294	     -7.84299924	      2.85487004	      3.69410092	     11.65010142	    -17.63000696	     11.65395846	     64.19121620	     44.87919224	      0.00000000	      0.00000000	      1.60850551	     -9.15180601	    -16.12314191	     36.17315847	     46.73467345	      0.00000000	      0.00000000
     48.16942857	     -2.57240343	     -3.64132784	      7.04627122	      1.08950627	      0.92600184	      0.43076816	      3.02686899	     -2.63265458	    -13.70647792	     30.71179899	     30.71179899	     14.73943213	     -2.41168957	    -12.33801432	     22.16763757	     -3.98659043	      0.11549357	     26.55933649	     26.55933649	      9.82144259	    -13.50676622	      3.41246395	     -7.88516843	      2.80714227	      2.77545542	     12.30471188	    -16.24852441	     11.35234870	     58.86383744	     45.09936924	      0.00000000	      0.00000000	      0.48817146	     -9.63978582	    -14.88242219	     39.63046589	     46.55855967	      0.00000000	      0.00000000
